<svg xmlns="http://www.w3.org/2000/svg" width="1200" height="630" viewBox="0 0 1200 630" role="img" aria-label="Checkpoint64 — never lose a save again">
  <defs>
    <pattern id="grid" width="32" height="32" patternUnits="userSpaceOnUse">
      <path d="M32 0H0V32" fill="none" stroke="#e4dcc8" stroke-width="1"/>
    </pattern>
  </defs>

  <!-- Paper background -->
  <rect width="1200" height="630" fill="#f5efe1"/>
  <rect width="1200" height="630" fill="url(#grid)" opacity="0.6"/>

  <!-- Top tape -->
  <rect x="60" y="60" width="220" height="34" fill="#ffd23f" transform="rotate(-2 170 77)"/>
  <text x="170" y="84" font-family="'Press Start 2P', monospace, system-ui" font-size="14" fill="#1a1814" text-anchor="middle" transform="rotate(-2 170 77)">CHECKPOINT64</text>

  <!-- Headline -->
  <text x="60" y="220" font-family="'Press Start 2P', monospace, system-ui" font-weight="800" font-size="64" fill="#1a1814">NEVER LOSE</text>
  <text x="60" y="300" font-family="'Press Start 2P', monospace, system-ui" font-weight="800" font-size="64" fill="#1a1814">A SAVE <tspan fill="#ff5f4e">AGAIN.</tspan></text>

  <!-- Subhead -->
  <text x="60" y="360" font-family="'Patrick Hand', cursive, system-ui" font-size="28" fill="#3a342a">Automatic cloud backup · version history · co-op locks</text>
  <text x="60" y="400" font-family="'Patrick Hand', cursive, system-ui" font-size="28" fill="#3a342a">Windows · macOS · Linux · one-time purchase</text>

  <!-- Decorative cartridges -->
  <g transform="translate(760 130) rotate(-6)">
    <rect x="0" y="0" width="320" height="220" fill="#1a1814"/>
    <rect x="0" y="0" width="320" height="32" fill="#3df0ff"/>
    <rect x="20" y="60" width="280" height="140" fill="#f5efe1"/>
    <text x="160" y="120" font-family="'Press Start 2P', monospace, system-ui" font-size="18" fill="#1a1814" text-anchor="middle">FACTORIO</text>
    <text x="160" y="155" font-family="'JetBrains Mono', monospace" font-size="14" fill="#3a342a" text-anchor="middle">6h · 14.2 MB</text>
    <text x="160" y="180" font-family="'JetBrains Mono', monospace" font-size="14" fill="#3a342a" text-anchor="middle">SYNCED · AUTO ON</text>
  </g>

  <g transform="translate(820 320) rotate(4)">
    <rect x="0" y="0" width="320" height="220" fill="#1a1814"/>
    <rect x="0" y="0" width="320" height="32" fill="#ff5f4e"/>
    <rect x="20" y="60" width="280" height="140" fill="#f5efe1"/>
    <text x="160" y="120" font-family="'Press Start 2P', monospace, system-ui" font-size="18" fill="#1a1814" text-anchor="middle">SATISFACTORY</text>
    <text x="160" y="155" font-family="'JetBrains Mono', monospace" font-size="14" fill="#3a342a" text-anchor="middle">2d · 308 KB</text>
    <text x="160" y="180" font-family="'JetBrains Mono', monospace" font-size="14" fill="#3a342a" text-anchor="middle">AUTO ON · LOCK U</text>
  </g>

  <!-- URL footer -->
  <rect x="0" y="580" width="1200" height="50" fill="#1a1814"/>
  <text x="60" y="613" font-family="'JetBrains Mono', monospace" font-size="22" fill="#f5efe1">checkpoint64.com</text>
  <text x="1140" y="613" font-family="'JetBrains Mono', monospace" font-size="18" fill="#ffd23f" text-anchor="end">▮ JOIN THE LIST ↗</text>
</svg>
